STARTFONT 2.1
FONT -Monotype-Plantin-Bold-R-Normal--17-120-100-100-P-91-iso8859-5
SIZE 12 100 100
FONTBOUNDINGBOX 22 19 -2 -4

STARTPROPERTIES 24
FOUNDRY "Monotype"
FAMILY_NAME "Plantin"
WEIGHT_NAME "Bold"
SLANT "R"
SETWIDTH_NAME "Normal"
ADD_STYLE_NAME ""
PIXEL_SIZE 17
POINT_SIZE 120
RESOLUTION_X 100
RESOLUTION_Y 100
SPACING "P"
AVERAGE_WIDTH 91
CHARSET_REGISTRY "iso8859"
CHARSET_ENCODING "5"
FACE_NAME "Plantin Bold ISO Latin Cyrillic"
_DEC_DEVICE_FONTNAMES "PS=plantin-b-latcyrillic"
COPYRIGHT "Copyright (c) 1994 Monotype Typography Ltd."
CAP_HEIGHT 13
X_HEIGHT 9
WEIGHT 10
QUAD_WIDTH 12
DEFAULT_CHAR 160
FONT_DESCENT 4
FONT_ASCENT 16
ENDPROPERTIES

CHARS 191

STARTCHAR space
ENCODING 32
SWIDTH 250 0
DWIDTH 4 0
BBX 0 0 0 0
BITMAP
ENDCHAR

STARTCHAR exclam
ENCODING 33
SWIDTH 344 0
DWIDTH 6 0
BBX 2 12 2 0
BITMAP
C0
C0
C0
C0
C0
C0
C0
40
00
00
C0
C0
ENDCHAR

STARTCHAR quotedbl
ENCODING 34
SWIDTH 552 0
DWIDTH 9 0
BBX 6 6 1 6
BITMAP
CC
CC
CC
CC
44
44
ENDCHAR

STARTCHAR numbersign
ENCODING 35
SWIDTH 500 0
DWIDTH 9 0
BBX 8 12 0 0
BITMAP
12
12
12
12
7F
24
24
FE
48
48
48
48
ENDCHAR

STARTCHAR dollar
ENCODING 36
SWIDTH 521 0
DWIDTH 9 0
BBX 7 13 1 -1
BITMAP
10
7C
D6
D2
F0
78
1C
1E
16
96
D6
7C
10
ENDCHAR

STARTCHAR percent
ENCODING 37
SWIDTH 927 0
DWIDTH 16 0
BBX 14 12 1 0
BITMAP
3020
4860
CC40
CC80
4980
3100
0230
0648
04CC
08CC
1848
1030
ENDCHAR

STARTCHAR ampersand
ENCODING 38
SWIDTH 781 0
DWIDTH 13 0
BBX 13 12 0 0
BITMAP
0700
0C80
1880
1900
0E38
0E10
3310
61A0
C0C0
C0E0
E130
7E38
ENDCHAR

STARTCHAR quoteright
ENCODING 39
SWIDTH 344 0
DWIDTH 6 0
BBX 3 6 1 6
BITMAP
40
E0
60
20
40
80
ENDCHAR

STARTCHAR parenleft
ENCODING 40
SWIDTH 417 0
DWIDTH 7 0
BBX 5 16 1 -4
BITMAP
08
10
20
60
60
C0
C0
C0
C0
C0
C0
60
60
20
10
08
ENDCHAR

STARTCHAR parenright
ENCODING 41
SWIDTH 417 0
DWIDTH 7 0
BBX 5 16 1 -4
BITMAP
80
40
20
30
30
18
18
18
18
18
18
30
30
20
40
80
ENDCHAR

STARTCHAR asterisk
ENCODING 42
SWIDTH 510 0
DWIDTH 9 0
BBX 9 8 0 4
BITMAP
0800
0800
1C00
FF80
1C00
3600
2200
4100
ENDCHAR

STARTCHAR plus
ENCODING 43
SWIDTH 667 0
DWIDTH 11 0
BBX 9 9 1 1
BITMAP
0800
0800
0800
0800
FF80
0800
0800
0800
0800
ENDCHAR

STARTCHAR comma
ENCODING 44
SWIDTH 344 0
DWIDTH 6 0
BBX 3 6 1 -3
BITMAP
40
E0
60
20
40
80
ENDCHAR

STARTCHAR minus
ENCODING 45
SWIDTH 667 0
DWIDTH 11 0
BBX 9 1 1 5
BITMAP
FF80
ENDCHAR

STARTCHAR period
ENCODING 46
SWIDTH 344 0
DWIDTH 6 0
BBX 2 2 2 0
BITMAP
C0
C0
ENDCHAR

STARTCHAR slash
ENCODING 47
SWIDTH 281 0
DWIDTH 5 0
BBX 5 12 0 0
BITMAP
08
08
18
10
10
30
20
60
40
40
C0
80
ENDCHAR

STARTCHAR zero
ENCODING 48
SWIDTH 521 0
DWIDTH 9 0
BBX 7 12 1 0
BITMAP
38
6C
C6
C6
C6
C6
C6
C6
C6
C6
6C
38
ENDCHAR

STARTCHAR one
ENCODING 49
SWIDTH 521 0
DWIDTH 9 0
BBX 6 12 1 0
BITMAP
10
30
F0
30
30
30
30
30
30
30
30
FC
ENDCHAR

STARTCHAR two
ENCODING 50
SWIDTH 521 0
DWIDTH 9 0
BBX 8 12 0 0
BITMAP
3C
6E
46
06
06
0C
0C
08
10
21
7F
FE
ENDCHAR

STARTCHAR three
ENCODING 51
SWIDTH 521 0
DWIDTH 9 0
BBX 7 12 1 0
BITMAP
78
9C
0C
0C
0C
78
1C
0E
06
06
8C
78
ENDCHAR

STARTCHAR four
ENCODING 52
SWIDTH 521 0
DWIDTH 9 0
BBX 9 12 0 0
BITMAP
0200
0600
0E00
1600
2600
4600
8600
FF80
FF80
0600
0600
0600
ENDCHAR

STARTCHAR five
ENCODING 53
SWIDTH 521 0
DWIDTH 9 0
BBX 8 12 0 0
BITMAP
1F
1E
30
20
38
7C
0E
06
06
06
8C
78
ENDCHAR

STARTCHAR six
ENCODING 54
SWIDTH 521 0
DWIDTH 9 0
BBX 7 12 1 0
BITMAP
0E
30
60
60
C0
DC
EE
C6
C6
C6
64
38
ENDCHAR

STARTCHAR seven
ENCODING 55
SWIDTH 521 0
DWIDTH 9 0
BBX 8 12 0 0
BITMAP
7F
FF
86
06
04
0C
08
18
18
10
30
30
ENDCHAR

STARTCHAR eight
ENCODING 56
SWIDTH 521 0
DWIDTH 9 0
BBX 7 12 1 0
BITMAP
7C
C6
C6
C6
6C
38
5C
CE
C6
C6
CE
7C
ENDCHAR

STARTCHAR nine
ENCODING 57
SWIDTH 521 0
DWIDTH 9 0
BBX 7 12 1 0
BITMAP
38
4C
C6
C6
C6
EE
76
06
0C
0C
18
E0
ENDCHAR

STARTCHAR colon
ENCODING 58
SWIDTH 344 0
DWIDTH 6 0
BBX 2 8 2 0
BITMAP
C0
C0
00
00
00
00
C0
C0
ENDCHAR

STARTCHAR semicolon
ENCODING 59
SWIDTH 344 0
DWIDTH 6 0
BBX 3 11 1 -3
BITMAP
60
60
00
00
00
40
E0
60
20
40
80
ENDCHAR

STARTCHAR less
ENCODING 60
SWIDTH 667 0
DWIDTH 11 0
BBX 9 9 1 1
BITMAP
0080
0380
0E00
3800
F000
3800
0E00
0380
0080
ENDCHAR

STARTCHAR equal
ENCODING 61
SWIDTH 667 0
DWIDTH 11 0
BBX 9 5 1 3
BITMAP
FF80
0000
0000
0000
FF80
ENDCHAR

STARTCHAR greater
ENCODING 62
SWIDTH 667 0
DWIDTH 11 0
BBX 9 9 2 1
BITMAP
8000
E000
3800
0E00
0780
0E00
3800
E000
8000
ENDCHAR

STARTCHAR question
ENCODING 63
SWIDTH 458 0
DWIDTH 8 0
BBX 7 12 0 0
BITMAP
78
CC
06
06
3E
3C
20
20
00
00
30
30
ENDCHAR

STARTCHAR at
ENCODING 64
SWIDTH 927 0
DWIDTH 16 0
BBX 14 16 1 -4
BITMAP
0780
1860
2010
4008
4368
86C4
8CC4
8D84
9988
9988
9B10
4CE0
4004
2008
1830
07C0
ENDCHAR

STARTCHAR A
ENCODING 65
SWIDTH 781 0
DWIDTH 13 0
BBX 11 12 1 0
BITMAP
0C00
0C00
0E00
1600
1300
1300
3F00
2180
2180
40C0
40C0
E1E0
ENDCHAR

STARTCHAR B
ENCODING 66
SWIDTH 781 0
DWIDTH 13 0
BBX 10 12 1 0
BITMAP
FF00
6180
60C0
60C0
6180
7F00
6180
60C0
60C0
60C0
6180
FF00
ENDCHAR

STARTCHAR C
ENCODING 67
SWIDTH 802 0
DWIDTH 14 0
BBX 11 12 1 0
BITMAP
0FC0
3060
6020
6020
C000
C000
C000
C000
6020
6020
3060
0FC0
ENDCHAR

STARTCHAR D
ENCODING 68
SWIDTH 875 0
DWIDTH 15 0
BBX 12 12 1 0
BITMAP
FF00
60C0
6060
6060
6030
6030
6030
6030
6060
6060
60C0
FF80
ENDCHAR

STARTCHAR E
ENCODING 69
SWIDTH 750 0
DWIDTH 13 0
BBX 10 12 1 0
BITMAP
FFC0
60C0
6040
6000
6100
7F00
6100
6000
6040
6040
60C0
FF80
ENDCHAR

STARTCHAR F
ENCODING 70
SWIDTH 687 0
DWIDTH 12 0
BBX 9 12 1 0
BITMAP
FF80
6180
6080
6000
6200
7E00
6200
6000
6000
6000
6000
F000
ENDCHAR

STARTCHAR G
ENCODING 71
SWIDTH 844 0
DWIDTH 14 0
BBX 12 12 1 0
BITMAP
0FC0
3060
6020
6020
C000
C000
C0F0
C060
6060
6060
30C0
0F80
ENDCHAR

STARTCHAR H
ENCODING 72
SWIDTH 875 0
DWIDTH 15 0
BBX 12 12 1 0
BITMAP
F0F0
6060
6060
6060
6060
7FE0
6060
6060
6060
6060
6060
F0F0
ENDCHAR

STARTCHAR I
ENCODING 73
SWIDTH 406 0
DWIDTH 7 0
BBX 4 12 1 0
BITMAP
F0
60
60
60
60
60
60
60
60
60
60
F0
ENDCHAR

STARTCHAR J
ENCODING 74
SWIDTH 406 0
DWIDTH 7 0
BBX 7 16 -2 -4
BITMAP
1E
0C
0C
0C
0C
0C
0C
0C
0C
0C
0C
0C
0C
0C
C8
70
ENDCHAR

STARTCHAR K
ENCODING 75
SWIDTH 781 0
DWIDTH 13 0
BBX 10 12 1 0
BITMAP
F3C0
6180
6100
6200
6400
7800
7800
6C00
6600
6300
6180
F1C0
ENDCHAR

STARTCHAR L
ENCODING 76
SWIDTH 687 0
DWIDTH 12 0
BBX 9 12 1 0
BITMAP
F000
6000
6000
6000
6000
6000
6000
6000
6080
6080
6180
FF00
ENDCHAR

STARTCHAR M
ENCODING 77
SWIDTH 1010 0
DWIDTH 17 0
BBX 15 12 1 0
BITMAP
701C
3818
3838
2C78
2C58
2C98
2698
470C
470C
430C
430C
E21E
ENDCHAR

STARTCHAR N
ENCODING 78
SWIDTH 792 0
DWIDTH 13 0
BBX 12 12 0 0
BITMAP
E070
7020
3820
2C20
2C20
2620
2320
2320
21A0
20E0
2060
7020
ENDCHAR

STARTCHAR O
ENCODING 79
SWIDTH 875 0
DWIDTH 15 0
BBX 12 12 1 0
BITMAP
0F00
30C0
6060
6060
C030
C030
C030
C030
6060
6060
30C0
0F00
ENDCHAR

STARTCHAR P
ENCODING 80
SWIDTH 729 0
DWIDTH 12 0
BBX 10 12 1 0
BITMAP
FF00
6180
60C0
60C0
60C0
6180
6F00
6000
6000
6000
6000
F000
ENDCHAR

STARTCHAR Q
ENCODING 81
SWIDTH 865 0
DWIDTH 15 0
BBX 13 16 1 -4
BITMAP
0F00
30C0
6060
6060
C030
C030
C030
C030
6060
6060
30C0
0F00
0E00
0380
00E0
0038
ENDCHAR

STARTCHAR R
ENCODING 82
SWIDTH 771 0
DWIDTH 13 0
BBX 10 12 1 0
BITMAP
FF00
6180
60C0
60C0
60C0
6180
7F00
6C00
6600
6300
6180
F1C0
ENDCHAR

STARTCHAR S
ENCODING 83
SWIDTH 656 0
DWIDTH 11 0
BBX 9 12 1 0
BITMAP
3E00
6300
C100
C000
F000
7C00
1F00
0780
0180
8180
C300
7E00
ENDCHAR

STARTCHAR T
ENCODING 84
SWIDTH 740 0
DWIDTH 13 0
BBX 10 12 1 0
BITMAP
7F80
CCC0
8C40
0C00
0C00
0C00
0C00
0C00
0C00
0C00
0C00
1E00
ENDCHAR

STARTCHAR U
ENCODING 85
SWIDTH 833 0
DWIDTH 14 0
BBX 11 12 1 0
BITMAP
F0E0
6040
6040
6040
6040
6040
6040
6040
6040
6040
3080
1F00
ENDCHAR

STARTCHAR V
ENCODING 86
SWIDTH 729 0
DWIDTH 12 0
BBX 12 12 0 0
BITMAP
F070
6020
6020
3040
3040
1840
1880
0C80
0D00
0700
0600
0200
ENDCHAR

STARTCHAR W
ENCODING 87
SWIDTH 1031 0
DWIDTH 18 0
BBX 17 12 0 0
BITMAP
F1E380
60C100
60C100
30C100
30C200
196200
196200
0D3400
0D3400
0E1C00
061800
040800
ENDCHAR

STARTCHAR X
ENCODING 88
SWIDTH 781 0
DWIDTH 13 0
BBX 11 12 1 0
BITMAP
F0E0
6040
3080
1900
1A00
0C00
0400
0E00
1300
2180
40C0
E1E0
ENDCHAR

STARTCHAR Y
ENCODING 89
SWIDTH 729 0
DWIDTH 12 0
BBX 11 12 0 0
BITMAP
F0E0
6040
3080
3080
1900
1900
0E00
0C00
0C00
0C00
0C00
1E00
ENDCHAR

STARTCHAR Z
ENCODING 90
SWIDTH 687 0
DWIDTH 12 0
BBX 9 12 1 0
BITMAP
FF80
C180
8300
0600
0C00
0C00
1800
3000
3000
6080
C180
FF80
ENDCHAR

STARTCHAR bracketleft
ENCODING 91
SWIDTH 396 0
DWIDTH 7 0
BBX 4 16 2 -4
BITMAP
F0
C0
C0
C0
C0
C0
C0
C0
C0
C0
C0
C0
C0
C0
C0
F0
ENDCHAR

STARTCHAR backslash
ENCODING 92
SWIDTH 281 0
DWIDTH 5 0
BBX 5 12 0 0
BITMAP
80
80
C0
40
40
60
20
30
10
10
18
08
ENDCHAR

STARTCHAR bracketright
ENCODING 93
SWIDTH 396 0
DWIDTH 7 0
BBX 4 16 1 -4
BITMAP
F0
30
30
30
30
30
30
30
30
30
30
30
30
30
30
F0
ENDCHAR

STARTCHAR asciicircum
ENCODING 94
SWIDTH 583 0
DWIDTH 10 0
BBX 7 6 2 6
BITMAP
10
10
38
6C
44
C6
ENDCHAR

STARTCHAR underscore
ENCODING 95
SWIDTH 500 0
DWIDTH 9 0
BBX 9 1 0 -3
BITMAP
FF80
ENDCHAR

STARTCHAR quoteleft
ENCODING 96
SWIDTH 344 0
DWIDTH 6 0
BBX 3 6 2 6
BITMAP
20
40
80
C0
E0
40
ENDCHAR

STARTCHAR a
ENCODING 97
SWIDTH 562 0
DWIDTH 10 0
BBX 8 8 1 0
BITMAP
3C
6E
46
1E
76
C6
CE
77
ENDCHAR

STARTCHAR b
ENCODING 98
SWIDTH 604 0
DWIDTH 10 0
BBX 9 12 0 0
BITMAP
2000
E000
6000
6000
6E00
7300
6180
6180
6180
6180
3300
1E00
ENDCHAR

STARTCHAR c
ENCODING 99
SWIDTH 521 0
DWIDTH 9 0
BBX 7 8 1 0
BITMAP
3C
66
C2
C0
C0
C0
62
3C
ENDCHAR

STARTCHAR d
ENCODING 100
SWIDTH 615 0
DWIDTH 10 0
BBX 9 12 1 0
BITMAP
0100
0700
0300
0300
3B00
6700
C300
C300
C300
C300
6700
3B80
ENDCHAR

STARTCHAR e
ENCODING 101
SWIDTH 521 0
DWIDTH 9 0
BBX 7 8 1 0
BITMAP
3C
46
C6
FE
C0
C0
62
3C
ENDCHAR

STARTCHAR f
ENCODING 102
SWIDTH 354 0
DWIDTH 6 0
BBX 7 12 1 0
BITMAP
1C
26
60
60
F0
60
60
60
60
60
60
F0
ENDCHAR

STARTCHAR g
ENCODING 103
SWIDTH 552 0
DWIDTH 9 0
BBX 9 12 1 -4
BITMAP
7D80
C780
C600
C600
7C00
8000
7C00
7E00
C300
8300
C600
7C00
ENDCHAR

STARTCHAR h
ENCODING 104
SWIDTH 625 0
DWIDTH 11 0
BBX 9 12 1 0
BITMAP
2000
E000
6000
6000
6E00
7300
6300
6300
6300
6300
6300
F780
ENDCHAR

STARTCHAR i
ENCODING 105
SWIDTH 333 0
DWIDTH 6 0
BBX 4 12 1 0
BITMAP
60
60
00
00
20
E0
60
60
60
60
60
F0
ENDCHAR

STARTCHAR j
ENCODING 106
SWIDTH 313 0
DWIDTH 5 0
BBX 3 16 1 -4
BITMAP
60
60
00
00
20
E0
60
60
60
60
60
60
60
60
40
80
ENDCHAR

STARTCHAR k
ENCODING 107
SWIDTH 552 0
DWIDTH 9 0
BBX 9 12 0 0
BITMAP
2000
E000
6000
6000
6F00
6400
6800
7C00
6C00
6600
6300
F380
ENDCHAR

STARTCHAR l
ENCODING 108
SWIDTH 312 0
DWIDTH 6 0
BBX 4 12 1 0
BITMAP
20
E0
60
60
60
60
60
60
60
60
60
F0
ENDCHAR

STARTCHAR m
ENCODING 109
SWIDTH 979 0
DWIDTH 16 0
BBX 14 8 1 0
BITMAP
2EF0
F7B8
6318
6318
6318
6318
6318
F7BC
ENDCHAR

STARTCHAR n
ENCODING 110
SWIDTH 625 0
DWIDTH 11 0
BBX 9 8 1 0
BITMAP
2E00
F300
6300
6300
6300
6300
6300
F780
ENDCHAR

STARTCHAR o
ENCODING 111
SWIDTH 573 0
DWIDTH 10 0
BBX 8 8 1 0
BITMAP
3C
66
C3
C3
C3
C3
66
3C
ENDCHAR

STARTCHAR p
ENCODING 112
SWIDTH 615 0
DWIDTH 10 0
BBX 9 12 0 -4
BITMAP
2E00
F300
6180
6180
6180
6180
7300
6E00
6000
6000
6000
F000
ENDCHAR

STARTCHAR q
ENCODING 113
SWIDTH 615 0
DWIDTH 10 0
BBX 9 12 1 -4
BITMAP
3D00
6300
C300
C300
C300
C300
6700
3B00
0300
0300
0300
0780
ENDCHAR

STARTCHAR r
ENCODING 114
SWIDTH 479 0
DWIDTH 8 0
BBX 7 8 1 0
BITMAP
2C
F6
60
60
60
60
60
F0
ENDCHAR

STARTCHAR s
ENCODING 115
SWIDTH 458 0
DWIDTH 8 0
BBX 6 8 1 0
BITMAP
78
CC
C0
F0
78
1C
CC
78
ENDCHAR

STARTCHAR t
ENCODING 116
SWIDTH 375 0
DWIDTH 6 0
BBX 5 10 1 0
BITMAP
20
60
F8
60
60
60
60
60
68
30
ENDCHAR

STARTCHAR u
ENCODING 117
SWIDTH 625 0
DWIDTH 11 0
BBX 9 8 1 0
BITMAP
E700
6300
6300
6300
6300
6300
6700
3B80
ENDCHAR

STARTCHAR v
ENCODING 118
SWIDTH 542 0
DWIDTH 9 0
BBX 9 8 0 0
BITMAP
F380
6100
6100
3200
3200
1C00
1C00
0800
ENDCHAR

STARTCHAR w
ENCODING 119
SWIDTH 771 0
DWIDTH 13 0
BBX 13 8 0 0
BITMAP
F7B8
6310
6310
37A0
35A0
39C0
18C0
1080
ENDCHAR

STARTCHAR x
ENCODING 120
SWIDTH 552 0
DWIDTH 9 0
BBX 9 8 0 0
BITMAP
F380
6100
3200
1C00
1C00
2600
4300
E780
ENDCHAR

STARTCHAR y
ENCODING 121
SWIDTH 542 0
DWIDTH 9 0
BBX 9 12 0 -4
BITMAP
F380
6100
3100
3200
1A00
1C00
0C00
0C00
0800
1800
5000
6000
ENDCHAR

STARTCHAR z
ENCODING 122
SWIDTH 510 0
DWIDTH 9 0
BBX 7 8 1 0
BITMAP
FE
C6
8C
18
30
62
C6
FE
ENDCHAR

STARTCHAR braceleft
ENCODING 123
SWIDTH 396 0
DWIDTH 7 0
BBX 5 16 1 -4
BITMAP
18
20
60
60
60
60
40
80
80
40
60
60
60
60
20
18
ENDCHAR

STARTCHAR bar
ENCODING 124
SWIDTH 219 0
DWIDTH 4 0
BBX 1 16 1 -4
BITMAP
80
80
80
80
80
80
80
80
80
80
80
80
80
80
80
80
ENDCHAR

STARTCHAR braceright
ENCODING 125
SWIDTH 396 0
DWIDTH 7 0
BBX 5 16 1 -4
BITMAP
C0
20
30
30
30
30
10
08
08
10
30
30
30
30
20
C0
ENDCHAR

STARTCHAR asciitilde
ENCODING 126
SWIDTH 521 0
DWIDTH 9 0
BBX 8 2 0 4
BITMAP
79
9E
ENDCHAR

STARTCHAR space
ENCODING 160
SWIDTH 250 0
DWIDTH 5 0
BBX 0 0 0 0
BITMAP
ENDCHAR

STARTCHAR afii10023
ENCODING 161
SWIDTH 750 0
DWIDTH 13 0
BBX 10 15 1 0
BITMAP
1980
1980
0000
FFC0
60C0
6040
6000
6100
7F00
6100
6000
6040
6040
60C0
FF80
ENDCHAR

STARTCHAR afii10051
ENCODING 162
SWIDTH 850 0
DWIDTH 14 0
BBX 13 12 -1 0
BITMAP
7F80
CCC0
8C40
0C00
0DE0
0E30
0C18
0C18
0C18
0C18
0D30
1CE0
ENDCHAR

STARTCHAR afii10052
ENCODING 163
SWIDTH 646 0
DWIDTH 11 0
BBX 9 15 1 0
BITMAP
0600
0C00
0000
FF80
6180
6080
6000
6000
6000
6000
6000
6000
6000
6000
F000
ENDCHAR

STARTCHAR afii10053
ENCODING 164
SWIDTH 813 0
DWIDTH 14 0
BBX 11 12 1 0
BITMAP
1FC0
7060
6020
C000
C000
FF80
C000
C000
C000
6020
7060
1FC0
ENDCHAR

STARTCHAR afii10054
ENCODING 165
SWIDTH 656 0
DWIDTH 11 0
BBX 9 12 1 0
BITMAP
3E00
6300
C100
C000
F000
7C00
1F00
0780
0180
8180
C300
7E00
ENDCHAR

STARTCHAR afii10055
ENCODING 166
SWIDTH 406 0
DWIDTH 7 0
BBX 4 12 1 0
BITMAP
F0
60
60
60
60
60
60
60
60
60
60
F0
ENDCHAR

STARTCHAR afii10056
ENCODING 167
SWIDTH 406 0
DWIDTH 7 0
BBX 6 15 0 0
BITMAP
CC
CC
00
78
30
30
30
30
30
30
30
30
30
30
78
ENDCHAR

STARTCHAR afii10057
ENCODING 168
SWIDTH 406 0
DWIDTH 7 0
BBX 7 16 -2 -4
BITMAP
1E
0C
0C
0C
0C
0C
0C
0C
0C
0C
0C
0C
0C
0C
C8
70
ENDCHAR

STARTCHAR afii10058
ENCODING 169
SWIDTH 1086 0
DWIDTH 19 0
BBX 17 12 0 0
BITMAP
1FE000
08C000
08C000
08C000
08C000
08FE00
08C300
08C180
08C180
88C180
D0C300
61FE00
ENDCHAR

STARTCHAR afii10059
ENCODING 170
SWIDTH 1095 0
DWIDTH 20 0
BBX 17 12 1 0
BITMAP
F1E000
60C000
60C000
60C000
60C000
7FFE00
60C300
60C180
60C180
60C180
60C300
F1FE00
ENDCHAR

STARTCHAR afii10060
ENCODING 171
SWIDTH 854 0
DWIDTH 15 0
BBX 14 12 -1 0
BITMAP
7FC0
CC60
8C20
0C00
0DE0
0E10
0C18
0C18
0C18
0C18
0C18
1E3C
ENDCHAR

STARTCHAR afii10061
ENCODING 172
SWIDTH 781 0
DWIDTH 13 0
BBX 10 15 1 0
BITMAP
0600
0C00
0000
F0C0
6140
6200
6200
6400
7800
7800
6C00
6600
6300
6180
F1C0
ENDCHAR

STARTCHAR hyphen
ENCODING 173
SWIDTH 458 0
DWIDTH 8 0
BBX 6 1 1 3
BITMAP
FC
ENDCHAR

STARTCHAR afii10062
ENCODING 174
SWIDTH 750 0
DWIDTH 13 0
BBX 12 15 0 0
BITMAP
1980
0F00
0000
F070
6020
3020
3040
1840
0C80
0C80
0700
0700
2200
3200
1C00
ENDCHAR

STARTCHAR afii10145
ENCODING 175
SWIDTH 854 0
DWIDTH 15 0
BBX 12 14 1 -2
BITMAP
F0F0
6060
6060
6060
6060
6060
6060
6060
6060
6060
6060
FFF0
0600
0600
ENDCHAR

STARTCHAR afii10017
ENCODING 176
SWIDTH 781 0
DWIDTH 13 0
BBX 11 12 1 0
BITMAP
0C00
0C00
0E00
1600
1300
1300
3F00
2180
2180
40C0
40C0
E1E0
ENDCHAR

STARTCHAR afii10018
ENCODING 177
SWIDTH 740 0
DWIDTH 13 0
BBX 10 12 1 0
BITMAP
FF80
6180
6080
6000
6000
7F00
6180
60C0
60C0
60C0
6180
FF00
ENDCHAR

STARTCHAR afii10019
ENCODING 178
SWIDTH 781 0
DWIDTH 13 0
BBX 10 12 1 0
BITMAP
FF00
6180
60C0
60C0
6180
7F00
6180
60C0
60C0
60C0
6180
FF00
ENDCHAR

STARTCHAR afii10020
ENCODING 179
SWIDTH 646 0
DWIDTH 11 0
BBX 9 12 1 0
BITMAP
FF80
6180
6080
6000
6000
6000
6000
6000
6000
6000
6000
F000
ENDCHAR

STARTCHAR afii10021
ENCODING 180
SWIDTH 781 0
DWIDTH 13 0
BBX 11 14 0 -2
BITMAP
7FE0
20C0
20C0
20C0
20C0
20C0
20C0
20C0
40C0
40C0
40C0
FFE0
C060
8020
ENDCHAR

STARTCHAR afii10022
ENCODING 181
SWIDTH 750 0
DWIDTH 13 0
BBX 10 12 1 0
BITMAP
FFC0
60C0
6040
6000
6100
7F00
6100
6000
6040
6040
60C0
FF80
ENDCHAR

STARTCHAR afii10024
ENCODING 182
SWIDTH 1094 0
DWIDTH 19 0
BBX 16 12 1 0
BITMAP
E3C7
B18D
1188
0990
0990
0FF0
0DB0
1998
318C
318C
6186
E3C7
ENDCHAR

STARTCHAR afii10025
ENCODING 183
SWIDTH 750 0
DWIDTH 13 0
BBX 10 12 1 0
BITMAP
7F00
C180
80C0
00C0
0180
3E00
0180
00C0
00C0
80C0
C180
7E00
ENDCHAR

STARTCHAR afii10026
ENCODING 184
SWIDTH 854 0
DWIDTH 15 0
BBX 12 12 1 0
BITMAP
F0F0
6060
6060
60E0
6160
6260
6460
6860
7060
6060
6060
F0F0
ENDCHAR

STARTCHAR afii10027
ENCODING 185
SWIDTH 854 0
DWIDTH 15 0
BBX 12 15 1 0
BITMAP
1980
0F00
0000
F0F0
6060
6060
60E0
6160
6260
6460
6860
7060
6060
6060
F0F0
ENDCHAR

STARTCHAR afii10028
ENCODING 186
SWIDTH 781 0
DWIDTH 13 0
BBX 10 12 1 0
BITMAP
F0C0
6140
6200
6200
6400
7800
7800
6C00
6600
6300
6180
F1C0
ENDCHAR

STARTCHAR afii10029
ENCODING 187
SWIDTH 833 0
DWIDTH 14 0
BBX 12 12 0 0
BITMAP
1FF0
0860
0860
0860
0860
0860
0860
0860
0860
8860
D060
60F0
ENDCHAR

STARTCHAR afii10030
ENCODING 188
SWIDTH 1010 0
DWIDTH 17 0
BBX 15 12 1 0
BITMAP
701C
3818
3838
2C78
2C58
2C98
2698
470C
470C
430C
430C
E21E
ENDCHAR

STARTCHAR afii10031
ENCODING 189
SWIDTH 875 0
DWIDTH 15 0
BBX 12 12 1 0
BITMAP
F0F0
6060
6060
6060
6060
7FE0
6060
6060
6060
6060
6060
F0F0
ENDCHAR

STARTCHAR afii10032
ENCODING 190
SWIDTH 875 0
DWIDTH 15 0
BBX 12 12 1 0
BITMAP
0F00
30C0
6060
6060
C030
C030
C030
C030
6060
6060
30C0
0F00
ENDCHAR

STARTCHAR afii10033
ENCODING 191
SWIDTH 854 0
DWIDTH 15 0
BBX 12 12 1 0
BITMAP
FFF0
6060
6060
6060
6060
6060
6060
6060
6060
6060
6060
F0F0
ENDCHAR

STARTCHAR afii10034
ENCODING 192
SWIDTH 729 0
DWIDTH 12 0
BBX 10 12 1 0
BITMAP
FF00
6180
60C0
60C0
60C0
6180
6F00
6000
6000
6000
6000
F000
ENDCHAR

STARTCHAR afii10035
ENCODING 193
SWIDTH 802 0
DWIDTH 14 0
BBX 11 12 1 0
BITMAP
0FC0
3060
6020
6020
C000
C000
C000
C000
6020
6020
3060
0FC0
ENDCHAR

STARTCHAR afii10036
ENCODING 194
SWIDTH 740 0
DWIDTH 13 0
BBX 10 12 1 0
BITMAP
7F80
CCC0
8C40
0C00
0C00
0C00
0C00
0C00
0C00
0C00
0C00
1E00
ENDCHAR

STARTCHAR afii10037
ENCODING 195
SWIDTH 750 0
DWIDTH 13 0
BBX 12 12 0 0
BITMAP
F070
6020
3020
3040
1840
0C80
0C80
0700
0700
2200
3200
1C00
ENDCHAR

STARTCHAR afii10038
ENCODING 196
SWIDTH 974 0
DWIDTH 17 0
BBX 14 12 1 0
BITMAP
0780
0300
1FE0
6318
C30C
C30C
C30C
C30C
6318
1FE0
0300
0780
ENDCHAR

STARTCHAR afii10039
ENCODING 197
SWIDTH 781 0
DWIDTH 13 0
BBX 11 12 1 0
BITMAP
F0E0
6040
3080
1900
1A00
0C00
0400
0E00
1300
2180
40C0
E1E0
ENDCHAR

STARTCHAR afii10040
ENCODING 198
SWIDTH 854 0
DWIDTH 15 0
BBX 12 14 1 -2
BITMAP
F0F0
6060
6060
6060
6060
6060
6060
6060
6060
6060
6060
FFF0
0030
0010
ENDCHAR

STARTCHAR afii10041
ENCODING 199
SWIDTH 854 0
DWIDTH 15 0
BBX 12 12 1 0
BITMAP
F0F0
6060
6060
6060
6060
6060
70E0
3F60
0060
0060
0060
00F0
ENDCHAR

STARTCHAR afii10042
ENCODING 200
SWIDTH 1125 0
DWIDTH 19 0
BBX 16 12 1 0
BITMAP
F3CF
6186
6186
6186
6186
6186
6186
6186
6186
6186
6186
FFFF
ENDCHAR

STARTCHAR afii10043
ENCODING 201
SWIDTH 1125 0
DWIDTH 19 0
BBX 16 14 1 -2
BITMAP
F3CF
6186
6186
6186
6186
6186
6186
6186
6186
6186
6186
FFFF
0003
0001
ENDCHAR

STARTCHAR afii10044
ENCODING 202
SWIDTH 832 0
DWIDTH 14 0
BBX 13 12 -1 0
BITMAP
7E00
CC00
8C00
0C00
0C00
0FE0
0C30
0C18
0C18
0C18
0C30
1FE0
ENDCHAR

STARTCHAR afii10045
ENCODING 203
SWIDTH 1125 0
DWIDTH 18 0
BBX 15 12 1 0
BITMAP
F01E
600C
600C
600C
600C
7F0C
618C
60CC
60CC
60CC
618C
FF1E
ENDCHAR

STARTCHAR afii10046
ENCODING 204
SWIDTH 721 0
DWIDTH 13 0
BBX 10 12 1 0
BITMAP
F000
6000
6000
6000
6000
7F00
6180
60C0
60C0
60C0
6180
FF00
ENDCHAR

STARTCHAR afii10047
ENCODING 205
SWIDTH 802 0
DWIDTH 14 0
BBX 11 12 1 0
BITMAP
7F00
C1C0
80C0
0060
0060
3FE0
0060
0060
0060
80C0
C1C0
7F00
ENDCHAR

STARTCHAR afii10048
ENCODING 206
SWIDTH 1219 0
DWIDTH 20 0
BBX 17 12 1 0
BITMAP
F07800
618600
630300
630300
660180
7E0180
660180
660180
630300
630300
618600
F07800
ENDCHAR

STARTCHAR afii10049
ENCODING 207
SWIDTH 802 0
DWIDTH 13 0
BBX 10 12 1 0
BITMAP
3FC0
6180
C180
C180
C180
6180
3F80
0D80
1980
3180
6180
E3C0
ENDCHAR

STARTCHAR afii10065
ENCODING 208
SWIDTH 563 0
DWIDTH 10 0
BBX 8 8 1 0
BITMAP
3C
6E
46
1E
76
C6
CE
77
ENDCHAR

STARTCHAR afii10066
ENCODING 209
SWIDTH 583 0
DWIDTH 10 0
BBX 8 12 1 0
BITMAP
02
1C
70
40
DC
E6
C3
C3
C3
C3
66
3C
ENDCHAR

STARTCHAR afii10067
ENCODING 210
SWIDTH 573 0
DWIDTH 10 0
BBX 8 8 1 0
BITMAP
FE
63
63
7E
63
63
63
FE
ENDCHAR

STARTCHAR afii10068
ENCODING 211
SWIDTH 542 0
DWIDTH 9 0
BBX 8 8 1 0
BITMAP
FF
63
61
60
60
60
60
F0
ENDCHAR

STARTCHAR afii10069
ENCODING 212
SWIDTH 565 0
DWIDTH 10 0
BBX 8 10 1 -2
BITMAP
7F
26
26
26
46
46
46
FF
C3
81
ENDCHAR

STARTCHAR afii10070
ENCODING 213
SWIDTH 521 0
DWIDTH 9 0
BBX 7 8 1 0
BITMAP
3C
46
C6
FE
C0
C0
62
3C
ENDCHAR

STARTCHAR afii10072
ENCODING 214
SWIDTH 1021 0
DWIDTH 16 0
BBX 16 8 0 0
BITMAP
E3C7
B18D
1998
1FF8
1998
318C
718E
E3C7
ENDCHAR

STARTCHAR afii10073
ENCODING 215
SWIDTH 521 0
DWIDTH 9 0
BBX 7 8 1 0
BITMAP
7C
C6
06
3C
06
06
C6
7C
ENDCHAR

STARTCHAR afii10074
ENCODING 216
SWIDTH 625 0
DWIDTH 11 0
BBX 9 8 1 0
BITMAP
F780
6300
6300
6700
6B00
7300
6300
F780
ENDCHAR

STARTCHAR afii10075
ENCODING 217
SWIDTH 625 0
DWIDTH 11 0
BBX 9 11 1 0
BITMAP
3300
1E00
0000
F780
6300
6300
6700
6B00
7300
6300
F780
ENDCHAR

STARTCHAR afii10076
ENCODING 218
SWIDTH 604 0
DWIDTH 10 0
BBX 9 8 1 0
BITMAP
F180
6280
6400
7C00
6C00
6600
6300
F380
ENDCHAR

STARTCHAR afii10077
ENCODING 219
SWIDTH 573 0
DWIDTH 10 0
BBX 9 8 0 0
BITMAP
7F80
2300
2300
2300
2300
2300
A300
C780
ENDCHAR

STARTCHAR afii10078
ENCODING 220
SWIDTH 781 0
DWIDTH 14 0
BBX 12 8 1 0
BITMAP
F070
70E0
58E0
5960
4D60
4E60
4660
E4F0
ENDCHAR

STARTCHAR afii10079
ENCODING 221
SWIDTH 604 0
DWIDTH 11 0
BBX 9 8 1 0
BITMAP
F780
6300
6300
7F00
6300
6300
6300
F780
ENDCHAR

STARTCHAR afii10080
ENCODING 222
SWIDTH 573 0
DWIDTH 10 0
BBX 8 8 1 0
BITMAP
3C
66
C3
C3
C3
C3
66
3C
ENDCHAR

STARTCHAR afii10081
ENCODING 223
SWIDTH 615 0
DWIDTH 11 0
BBX 9 8 1 0
BITMAP
FF80
6300
6300
6300
6300
6300
6300
F780
ENDCHAR

STARTCHAR afii10082
ENCODING 224
SWIDTH 615 0
DWIDTH 10 0
BBX 9 12 0 -4
BITMAP
2E00
F300
6180
6180
6180
6180
7300
6E00
6000
6000
6000
F000
ENDCHAR

STARTCHAR afii10083
ENCODING 225
SWIDTH 521 0
DWIDTH 9 0
BBX 7 8 1 0
BITMAP
3C
66
C2
C0
C0
C0
62
3C
ENDCHAR

STARTCHAR afii10084
ENCODING 226
SWIDTH 583 0
DWIDTH 10 0
BBX 10 8 0 0
BITMAP
7F80
CCC0
8C40
0C00
0C00
0C00
0C00
1E00
ENDCHAR

STARTCHAR afii10085
ENCODING 227
SWIDTH 542 0
DWIDTH 9 0
BBX 9 12 0 -4
BITMAP
F380
6100
3100
3200
1A00
1C00
0C00
0C00
0800
1800
5000
6000
ENDCHAR

STARTCHAR afii10086
ENCODING 228
SWIDTH 823 0
DWIDTH 14 0
BBX 12 16 1 -4
BITMAP
0200
0E00
0600
0600
36C0
6F60
C630
C630
C630
C630
6F60
36C0
0600
0600
0600
0F00
ENDCHAR

STARTCHAR afii10087
ENCODING 229
SWIDTH 552 0
DWIDTH 9 0
BBX 9 8 0 0
BITMAP
F380
6100
3200
1C00
1C00
2600
4300
E780
ENDCHAR

STARTCHAR afii10088
ENCODING 230
SWIDTH 615 0
DWIDTH 11 0
BBX 9 10 1 -2
BITMAP
F780
6300
6300
6300
6300
6300
6300
FF80
0180
0080
ENDCHAR

STARTCHAR afii10089
ENCODING 231
SWIDTH 594 0
DWIDTH 10 0
BBX 9 8 0 0
BITMAP
F780
6300
6300
6700
3B00
0300
0300
0780
ENDCHAR

STARTCHAR afii10090
ENCODING 232
SWIDTH 1022 0
DWIDTH 18 0
BBX 16 8 1 0
BITMAP
F3CF
6186
6186
6186
6186
6186
6186
FFFF
ENDCHAR

STARTCHAR afii10091
ENCODING 233
SWIDTH 1019 0
DWIDTH 18 0
BBX 16 10 1 -2
BITMAP
F3CF
6186
6186
6186
6186
6186
6186
FFFF
0003
0001
ENDCHAR

STARTCHAR afii10092
ENCODING 234
SWIDTH 729 0
DWIDTH 11 0
BBX 11 8 -1 0
BITMAP
7F00
8C00
0C00
0FC0
0C60
0C60
0C60
1FC0
ENDCHAR

STARTCHAR afii10093
ENCODING 235
SWIDTH 833 0
DWIDTH 15 0
BBX 13 8 1 0
BITMAP
F078
6030
6030
7E30
6330
6330
6330
FE78
ENDCHAR

STARTCHAR afii10094
ENCODING 236
SWIDTH 563 0
DWIDTH 10 0
BBX 8 8 1 0
BITMAP
F0
60
60
7E
63
63
63
FE
ENDCHAR

STARTCHAR afii10095
ENCODING 237
SWIDTH 521 0
DWIDTH 9 0
BBX 7 8 1 0
BITMAP
78
CC
06
3E
06
06
CC
78
ENDCHAR

STARTCHAR afii10096
ENCODING 238
SWIDTH 854 0
DWIDTH 14 0
BBX 12 8 1 0
BITMAP
F1C0
6360
6630
7E30
6630
6630
6360
F1C0
ENDCHAR

STARTCHAR afii10097
ENCODING 239
SWIDTH 604 0
DWIDTH 11 0
BBX 10 8 0 0
BITMAP
3FC0
6180
6180
3F80
1980
3180
6180
E3C0
ENDCHAR

STARTCHAR afii61352
ENCODING 240
SWIDTH 1115 0
DWIDTH 19 0
BBX 18 12 0 0
BITMAP
781800
182C00
1C2000
1E2300
162480
132CC0
132CC0
11A480
10E300
10E000
D06000
602FC0
ENDCHAR

STARTCHAR afii10071
ENCODING 241
SWIDTH 521 0
DWIDTH 9 0
BBX 7 11 1 0
BITMAP
66
66
00
3C
46
C6
FE
C0
C0
62
3C
ENDCHAR

STARTCHAR afii10099
ENCODING 242
SWIDTH 594 0
DWIDTH 11 0
BBX 8 15 1 -3
BITMAP
E0
60
FE
60
6E
73
63
63
63
63
63
F3
03
02
04
ENDCHAR

STARTCHAR afii10100
ENCODING 243
SWIDTH 542 0
DWIDTH 9 0
BBX 8 11 1 0
BITMAP
0C
18
00
FF
63
61
60
60
60
60
F0
ENDCHAR

STARTCHAR afii10101
ENCODING 244
SWIDTH 521 0
DWIDTH 9 0
BBX 7 8 1 0
BITMAP
3C
66
C0
F8
C0
C0
66
3C
ENDCHAR

STARTCHAR afii10102
ENCODING 245
SWIDTH 458 0
DWIDTH 8 0
BBX 6 8 1 0
BITMAP
78
CC
C0
F0
78
1C
CC
78
ENDCHAR

STARTCHAR afii10103
ENCODING 246
SWIDTH 333 0
DWIDTH 6 0
BBX 4 12 1 0
BITMAP
60
60
00
00
20
E0
60
60
60
60
60
F0
ENDCHAR

STARTCHAR afii10104
ENCODING 247
SWIDTH 333 0
DWIDTH 6 0
BBX 6 11 0 0
BITMAP
CC
CC
00
10
70
30
30
30
30
30
78
ENDCHAR

STARTCHAR afii10105
ENCODING 248
SWIDTH 313 0
DWIDTH 5 0
BBX 3 16 1 -4
BITMAP
60
60
00
00
20
E0
60
60
60
60
60
60
60
60
40
80
ENDCHAR

STARTCHAR afii10106
ENCODING 249
SWIDTH 854 0
DWIDTH 14 0
BBX 13 8 0 0
BITMAP
7F80
2300
2300
23F0
2318
2318
A318
C7F0
ENDCHAR

STARTCHAR afii10107
ENCODING 250
SWIDTH 854 0
DWIDTH 15 0
BBX 13 8 1 0
BITMAP
F780
6300
6300
7FF0
6318
6318
6318
F7F0
ENDCHAR

STARTCHAR afii10108
ENCODING 251
SWIDTH 625 0
DWIDTH 11 0
BBX 9 12 1 0
BITMAP
E000
6000
FE00
6000
6E00
7300
6300
6300
6300
6300
6300
F780
ENDCHAR

STARTCHAR afii10109
ENCODING 252
SWIDTH 604 0
DWIDTH 10 0
BBX 9 11 1 0
BITMAP
0C00
1800
0000
F180
6280
6400
7C00
6C00
6600
6300
F380
ENDCHAR

STARTCHAR section
ENCODING 253
SWIDTH 573 0
DWIDTH 9 0
BBX 9 16 0 -4
BITMAP
3C00
6300
A180
B080
9800
CC00
6C00
6600
3600
3300
1980
0C80
0680
C280
6300
3E00
ENDCHAR

STARTCHAR afii10110
ENCODING 254
SWIDTH 542 0
DWIDTH 9 0
BBX 9 15 0 -4
BITMAP
3300
1E00
0000
F380
6100
3100
3200
1A00
1C00
0C00
0C00
0800
1800
5000
6000
ENDCHAR

STARTCHAR afii10193
ENCODING 255
SWIDTH 612 0
DWIDTH 11 0
BBX 9 10 1 -2
BITMAP
F780
6300
6300
6300
6300
6300
6300
FF80
1800
1800
ENDCHAR
ENDFONT
